<?xml version="1.0" encoding="UTF-8" standalone="no"?><!-- Generator: Gravit.io --><svg xmlns="http://www.w3.org/2000/svg" xmlns:xlink="http://www.w3.org/1999/xlink" style="isolation:isolate" viewBox="125.476 221.994 1088.593 202.519" width="1088.593pt" height="202.519pt"><defs><clipPath id="_clipPath_WXY4fbC7Tqnky8iz21lBM4qLYv1WAWwj"><rect x="125.476" y="221.994" width="1088.593" height="202.519"/></clipPath></defs><g clip-path="url(#_clipPath_WXY4fbC7Tqnky8iz21lBM4qLYv1WAWwj)"><linearGradient id="_lgradient_3" x1="0.49999999999999983" y1="0" x2="0.4999999999999999" y2="0.9999999999999999" gradientTransform="matrix(160.213,0,0,138.748,125.476,233.906)" gradientUnits="userSpaceOnUse"><stop offset="0%" stop-opacity="1" style="stop-color:rgb(18,170,150)"/><stop offset="0%" stop-opacity="1" style="stop-color:rgb(236,45,11)"/><stop offset="100%" stop-opacity="1" style="stop-color:rgb(255,213,0)"/></linearGradient><polygon points="285.689,372.655,125.476,372.655,205.583,233.906" fill="url(#_lgradient_3)"/><rect x="312.015" y="233.906" width="56.503" height="138.748" transform="matrix(1,0,0,1,0,0)" fill="rgb(242,99,8)"/><rect x="333.845" y="212.076" width="56.503" height="100.164" transform="matrix(0,1,-1,0,624.254,-99.939)" fill="rgb(242,99,8)"/><rect x="915.836" y="233.906" width="56.503" height="138.748" transform="matrix(1,0,0,1,0,0)" fill="rgb(242,99,8)"/><rect x="974.667" y="212.076" width="56.503" height="100.164" transform="matrix(0,1,-1,0,1265.076,-740.761)" fill="rgb(242,99,8)"/><rect x="996.497" y="272.07" width="56.503" height="100.164" transform="matrix(-1,0,0,-1,2049.497,644.304)" fill="rgb(242,99,8)"/><rect x="171.22" y="381.768" width="17.099" height="41.989" transform="matrix(1,0,0,1,0,0)" fill="rgb(242,99,8)"/><rect x="189.023" y="375.161" width="17.099" height="30.312" transform="matrix(0,1,-1,0,587.89,192.744)" fill="rgb(242,99,8)"/><rect x="195.63" y="393.317" width="17.099" height="30.312" transform="matrix(-1,0,0,-1,408.359,816.947)" fill="rgb(242,99,8)"/><rect x="470.607" y="233.906" width="56.503" height="138.748" transform="matrix(-1,0,0,-1,997.717,606.561)" fill="rgb(242,99,8)"/><rect x="623.421" y="233.906" width="56.503" height="138.748" transform="matrix(1,0,0,1,0,0)" fill="rgb(242,99,8)"/><rect x="601.591" y="212.076" width="56.503" height="100.164" transform="matrix(0,-1,1,0,367.684,891.999)" fill="rgb(242,99,8)"/><rect x="645.252" y="294.322" width="56.503" height="100.164" transform="matrix(0,-1,1,0,329.1,1017.906)" fill="rgb(242,99,8)"/><rect x="748.044" y="237.699" width="138.748" height="131.164" transform="matrix(0,-1,1,0,514.138,1120.699)" fill="rgb(242,99,8)"/><rect x="470.607" y="212.076" width="56.503" height="100.164" transform="matrix(0,1,-1,0,761.016,-236.701)" fill="rgb(242,99,8)"/><rect x="148.43" y="381.768" width="17.099" height="41.989" transform="matrix(-1,0,0,-1,313.96,805.525)" fill="rgb(242,99,8)"/><rect x="218.901" y="381.768" width="17.099" height="41.989" transform="matrix(-1,0,0,-1,454.901,805.525)" fill="rgb(242,99,8)"/><rect x="233.182" y="380.326" width="13.105" height="35.048" transform="matrix(-0.707,-0.707,0.707,-0.707,127.931,848.69)" fill="rgb(242,99,8)"/><rect x="233.445" y="389.964" width="13.105" height="35.048" transform="matrix(0.707,-0.707,0.707,0.707,-217.844,289.055)" fill="rgb(242,99,8)"/><rect x="125.476" y="381.768" width="17.264" height="17.264" transform="matrix(1,0,0,1,0,0)" fill="rgb(242,99,8)"/><g><g><linearGradient id="_lgradient_4" x1="0.44033127372230396" y1="-9.602264183783404e-8" x2="0.44033127372230374" y2="1.159133767568279" gradientTransform="matrix(140.001,0,0,154.493,1074.068,221.994)" gradientUnits="userSpaceOnUse"><stop offset="0%" stop-opacity="0.36471" style="stop-color:rgb(255,0,0)"/><stop offset="100%" stop-opacity="1" style="stop-color:rgb(255,85,0)"/></linearGradient><path d=" M 1106.968 270.591 C 1106.968 270.591 1105.755 280.622 1106.439 294.635 C 1107.741 313.93 1114.916 310.019 1114.916 310.019 C 1114.916 310.019 1122.255 302.778 1131.454 278.31 C 1140.547 254.124 1138.099 235.748 1138.099 235.748 C 1138.099 235.748 1145.22 253.425 1146.627 274.497 C 1147.371 285.645 1146.048 308.185 1146.048 308.185 C 1146.048 308.185 1158.763 299.603 1167.439 277.829 C 1181.985 244.509 1181.815 221.994 1181.815 221.994 C 1181.815 221.994 1281.012 377.022 1131.482 376.486 C 1018.618 371.482 1106.968 270.591 1106.968 270.591 L 1106.968 270.591 Z " fill="url(#_lgradient_4)"/><linearGradient id="_lgradient_5" x1="0.47144682720869024" y1="1.7156858156397448e-7" x2="0.47144682720869" y2="1.2545400049034305" gradientTransform="matrix(92.041,0,0,86.466,1089.011,289.671)" gradientUnits="userSpaceOnUse"><stop offset="0%" stop-opacity="0" style="stop-color:rgb(251,255,0)"/><stop offset="100%" stop-opacity="1" style="stop-color:rgb(251,255,0)"/></linearGradient><path d=" M 1113.017 319.109 C 1113.017 319.109 1112.199 325.185 1112.66 333.673 C 1113.538 345.361 1118.377 342.992 1118.377 342.992 C 1118.377 342.992 1123.326 338.605 1129.53 323.784 C 1135.662 309.134 1134.011 298.003 1134.011 298.003 C 1134.011 298.003 1138.813 308.71 1139.762 321.474 C 1140.264 328.227 1139.371 341.881 1139.371 341.881 C 1139.371 341.881 1147.946 336.682 1153.797 323.493 C 1163.606 303.31 1163.492 289.671 1163.492 289.671 C 1163.492 289.671 1219.398 376.066 1131.705 376.137 C 1048.133 371.854 1113.017 319.109 1113.017 319.109 L 1113.017 319.109 Z " fill="url(#_lgradient_5)"/></g></g></g></svg>