<svg width="1089" height="203" viewBox="0 0 1089 203" fill="none" xmlns="http://www.w3.org/2000/svg">
<g clip-path="url(#clip0_3_2)">
<path d="M160.213 150.661H0L80.107 11.912L160.213 150.661Z" fill="url(#paint0_linear_3_2)"/>
<path d="M243.042 11.912H186.539V150.66H243.042V11.912Z" fill="#F26308"/>
<path d="M287.164 67.503V11H187V67.503H287.164Z" fill="#F26308"/>
<path d="M846.863 11.912H790.36V150.66H846.863V11.912Z" fill="#F26308"/>
<path d="M927.524 68.415V11.912H827.36V68.415H927.524Z" fill="#F26308"/>
<path d="M871.021 150.24H927.524V50.076H871.021V150.24Z" fill="#F26308"/>
<path d="M62.843 159.774H45.744V201.763H62.843V159.774Z" fill="#F26308"/>
<path d="M87.253 176.872V159.773H56.941V176.872H87.253Z" fill="#F26308"/>
<path d="M70.154 201.636H87.253V171.324H70.154V201.636Z" fill="#F26308"/>
<path d="M345.131 150.661H401.634V11.913H345.131V150.661Z" fill="#F26308"/>
<path d="M554.448 150.659H497.945V11.911H554.448V150.659Z" fill="#F26308"/>
<path d="M454.284 150.66V94.157H554.448V150.66H454.284Z" fill="#F26308"/>
<path d="M497.946 68.414V11.911H598.11V68.414H497.946Z" fill="#F26308"/>
<path d="M626.361 11.913V150.661H757.525V11.913H626.361Z" fill="#F26308"/>
<path d="M423.464 68.415V11.912H323.3V68.415H423.464Z" fill="#F26308"/>
<path d="M22.955 201.763H40.054V159.774H22.955V201.763Z" fill="#F26308"/>
<path d="M93.425 201.763H110.524V159.774H93.425V201.763Z" fill="#F26308"/>
<path d="M105.62 194.295L96.3551 185.03L116.425 160.25L134.925 160.25L105.62 194.295Z" fill="#F26308"/>
<path d="M106.62 168L97.3551 177.265L117.425 202.045L135.925 202.045L106.62 168Z" fill="#F26308"/>
<path d="M17.264 159.774H0V177.038H17.264V159.774Z" fill="#F26308"/>
<path d="M981.492 48.597C981.492 48.597 977.316 58.487 978 72.5C979.302 91.795 989.44 88.025 989.44 88.025C989.44 88.025 999.801 81.468 1009 57C1014.5 32 1009 29.5 1009 29.5C1009 29.5 1019.74 31.431 1021.15 52.503C1021.89 63.651 1020.57 86.191 1020.57 86.191C1020.57 86.191 1033.29 77.609 1041.96 55.835C1056.51 22.515 1053 26 1053 26C1053 26 1155.54 155.028 1006.01 154.492C893.142 149.488 981.492 48.597 981.492 48.597Z" fill="url(#paint1_linear_3_2)"/>
<path d="M987.541 97.115C987.541 97.115 986.723 103.191 987.184 111.679C988.062 123.367 992.901 120.998 992.901 120.998C992.901 120.998 997.85 116.611 1004.05 101.79C1010.19 87.14 1008.53 76.009 1008.53 76.009C1008.53 76.009 1013.34 86.716 1014.29 99.48C1014.79 106.233 1013.89 119.887 1013.89 119.887C1013.89 119.887 1022.47 114.688 1028.32 101.499C1038.13 81.316 1038.02 67.677 1038.02 67.677C1038.02 67.677 1113 154.143 1006.23 154.143C922.657 149.86 987.541 97.115 987.541 97.115Z" fill="url(#paint2_linear_3_2)"/>
</g>
<defs>
<linearGradient id="paint0_linear_3_2" x1="80.1065" y1="11.912" x2="80.1065" y2="150.66" gradientUnits="userSpaceOnUse">
<stop stop-color="#FFD500"/>
<stop offset="1" stop-color="#F26308"/>
</linearGradient>
<linearGradient id="paint1_linear_3_2" x1="1006.5" y1="77.5" x2="1010.24" y2="179.078" gradientUnits="userSpaceOnUse">
<stop stop-color="#F26308"/>
<stop offset="1" stop-color="#FF0000"/>
</linearGradient>
<linearGradient id="paint2_linear_3_2" x1="1006.93" y1="67.677" x2="1006.93" y2="176.152" gradientUnits="userSpaceOnUse">
<stop stop-color="#FBFF00" stop-opacity="0"/>
<stop offset="1" stop-color="#FBFF00"/>
</linearGradient>
<clipPath id="clip0_3_2">
<rect width="1088.59" height="202.519" fill="white"/>
</clipPath>
</defs>
</svg>
